<svg
  width="100"
  height="100"
  viewBox="0 0 100 100"
  fill="none"
  xmlns="http://www.w3.org/2000/svg"
>
  <rect width="100" height="100" rx="4" fill="#E1ECFF"></rect>
  <path
    fill-rule="evenodd"
    clip-rule="evenodd"
    d="M36.6458 23C36.6458 21.3431 37.9691 20 39.6017 20H67.2833C68.107 20 68.8935 20.3489 69.453 20.9625L79.2137 31.6685C79.7192 32.223 80 32.9506 80 33.706V77C80 78.6569 78.6765 80 77.044 80H39.6017C37.9691 80 36.6458 78.6569 36.6458 77V23ZM47.4843 40C46.9401 40 46.499 40.4477 46.499 41C46.499 41.5523 46.9401 42 47.4843 42H68.1761C68.7203 42 69.1614 41.5523 69.1614 41C69.1614 40.4477 68.7203 40 68.1761 40H47.4843ZM46.499 49C46.499 48.4477 46.9401 48 47.4843 48H68.1761C68.7203 48 69.1614 48.4477 69.1614 49C69.1614 49.5523 68.7203 50 68.1761 50H47.4843C46.9401 50 46.499 49.5523 46.499 49ZM47.4843 56C46.9401 56 46.499 56.4477 46.499 57C46.499 57.5523 46.9401 58 47.4843 58H68.1761C68.7203 58 69.1614 57.5523 69.1614 57C69.1614 56.4477 68.7203 56 68.1761 56H47.4843ZM21.4248 34.5635L34.6751 26.6156V34.4157L24.3679 45.1449L20.4282 38.6838C19.5823 37.2667 20.0285 35.422 21.4248 34.5635ZM34.6751 37.2806L21.5508 50.9422C20.4111 52.1286 20.4349 54.0279 21.6038 55.1845L34.6751 68.7738V37.2806Z"
    fill="#e65a28"></path>
</svg>