<svg
  width="100"
  height="100"
  viewBox="0 0 100 100"
  fill="none"
  xmlns="http://www.w3.org/2000/svg"
>
  <rect width="100" height="100" rx="4" fill="#E1ECFF"></rect>
  <path
    d="M66.1108 36.9371C66.5022 36.9371 66.6885 36.3897 66.3903 36.095L50.0188 20H49.9816L33.6101 36.095C33.3119 36.3897 33.4983 36.9371 33.8896 36.9371H39.1076L39.117 36.9266C39.117 36.9266 38.6324 49.1795 28.8395 60.7898C30.0136 60.5161 31.3181 60.3688 32.7158 60.3688C35.8 60.3688 38.4556 61.0951 40.1796 62.2635H40.4219V60.0319C40.4219 57.0319 44.5404 54.7688 50.0004 54.7688C54.8457 54.7688 58.6379 56.5477 59.4209 59.053C59.4302 59.0635 59.4395 59.0846 59.4395 59.0951C59.5327 59.3898 59.5793 59.7056 59.5793 60.0319V62.2635H59.8216C61.5454 61.0951 64.201 60.3688 67.2855 60.3688C68.6832 60.3688 69.9876 60.5161 71.1617 60.7898C61.3685 49.1795 60.8843 36.9266 60.8843 36.9266L60.8936 36.9371H66.1108Z"
    fill="#e65a28"></path>
  <path
    d="M50.0002 63.1898C52.1247 63.1898 53.9137 62.8003 55.2182 62.2635C56.8116 61.6214 57.7154 60.7372 57.7154 60.0319C57.7154 58.7477 54.7057 56.874 49.9999 56.874C45.294 56.874 42.2843 58.7477 42.2843 60.0319C42.2843 60.7372 43.1882 61.6214 44.7815 62.2635C46.0861 62.8003 47.8757 63.1898 50.0002 63.1898Z"
    fill="#e65a28"></path>
  <path
    d="M42.2843 76.8421C42.2843 78.1263 45.294 80 49.9999 80C54.7057 80 57.7154 78.1264 57.7154 76.8421V74.4421C56.0009 75.7053 53.2335 76.5053 49.9999 76.5053C46.7662 76.5053 43.9994 75.7053 42.2843 74.4421V76.8421Z"
    fill="#e65a28"></path>
  <path
    d="M42.2843 71.2425C42.2843 72.5267 45.294 74.4004 49.9999 74.4004C54.7057 74.4004 57.7154 72.5268 57.7154 71.2425V68.832C56.0009 70.0952 53.2335 70.8952 49.9999 70.8952C46.7662 70.8952 43.9994 70.0952 42.2843 68.832V71.2425Z"
    fill="#e65a28"></path>
  <path
    d="M42.2843 65.6319C42.2843 66.9267 45.294 68.7898 49.9999 68.7898C54.7057 68.7898 57.7154 66.9267 57.7154 65.6319V63.2319C56.0009 64.4951 53.2335 65.2951 49.9999 65.2951C46.7662 65.2951 43.9994 64.4951 42.2843 63.2319V65.6319Z"
    fill="#e65a28"></path>
  <path
    d="M67.2844 62.4736C62.5789 62.4736 59.5784 64.3473 59.5784 65.6315C59.5784 66.9263 62.5788 68.7894 67.2844 68.7894C71.9901 68.7894 75 66.9263 75 65.6315C75 64.3474 71.9996 62.4736 67.2844 62.4736Z"
    fill="#e65a28"></path>
  <path
    d="M75 71.2425V68.832C73.2855 70.0952 70.5181 70.8952 67.2844 70.8952C64.0508 70.8952 61.284 70.0952 59.5784 68.832V71.2425C59.5784 72.5267 62.5788 74.3899 67.2844 74.3899C71.9901 74.3899 75 72.5268 75 71.2425Z"
    fill="#e65a28"></path>
  <path
    d="M59.5784 76.8421C59.5784 78.1263 62.5788 80 67.2844 80C71.9901 80 75 78.1264 75 76.8421V74.4316C73.2855 75.7053 70.5181 76.4948 67.2844 76.4948C64.0508 76.4948 61.284 75.7053 59.5784 74.4316V76.8421Z"
    fill="#e65a28"></path>
  <path
    d="M40.4215 65.6319C40.4215 64.3477 37.4212 62.474 32.7155 62.474C28.0099 62.474 25 64.3476 25 65.6319C25 66.9266 28.0003 68.7898 32.7155 68.7898C37.4307 68.7898 40.4215 66.9266 40.4215 65.6319Z"
    fill="#e65a28"></path>
  <path
    d="M25 71.2424C25 72.5266 28.0003 74.3898 32.7155 74.3898C37.4307 74.3898 40.4215 72.5267 40.4215 71.2424V68.8319C38.7163 70.0951 35.9489 70.8951 32.7155 70.8951C29.4821 70.8951 26.7151 70.0951 25 68.8319V71.2424Z"
    fill="#e65a28"></path>
  <path
    d="M25 76.8421C25 78.1263 28.0003 80 32.7155 80C37.4307 80 40.4215 78.1263 40.4215 76.8421V74.4316C38.7163 75.7052 35.9489 76.4947 32.7155 76.4947C29.4821 76.4947 26.7151 75.7052 25 74.4316V76.8421Z"
    fill="#e65a28"></path>
</svg>