<svg
  width="100"
  height="100"
  viewBox="0 0 100 100"
  fill="none"
  xmlns="http://www.w3.org/2000/svg"
>
  <rect width="100" height="100" rx="4" fill="#E1ECFF"></rect>
  <path
    d="M34.6523 32.0863L30.1354 36.6675L23.8008 32.8244L20 26.4191L24.5168 21.852L30.8653 25.6951L34.6523 32.0863Z"
    fill="#4D8EFF"></path>
  <path
    d="M50.5164 60.7983L48.1202 63.7642C44.8979 67.7048 41.9647 71.3669 39.596 74.4024C38.7698 75.5442 36.594 76.9366 34.005 77.3404C32.5729 77.5772 30.4934 77.5772 28.8271 76.3379C27.6979 75.4188 26.8579 74.5695 26.2107 73.6922C24.93 71.9378 24.93 69.8491 25.1641 68.3871C25.5634 65.7693 26.9267 63.5554 28.0973 62.6921C31.5813 59.9489 35.6713 56.5653 40.0091 52.9728L41.524 51.7057L50.5164 60.7983Z"
    fill="#4D8EFF"></path>
  <path
    d="M79.9998 31.9053L75.7169 43.1005C72.7149 45.955 68.2393 46.7626 64.4661 45.0777C63.9015 44.8271 63.2268 44.9942 62.8274 45.4955L62.4969 45.9271C61.946 46.6373 61.3814 47.3614 60.7617 48.1411L57.7184 51.9007L50.2958 44.3955C52.3615 42.6967 54.3307 41.0954 56.0933 39.6751C56.6718 39.2156 56.7819 38.3662 56.3413 37.7535C53.3805 33.7155 53.7524 27.9926 57.1813 24.3166L68.2118 20L70.3463 22.1443L62.0011 30.5686C61.7533 30.8332 61.6017 31.1813 61.6017 31.5572C61.6017 31.9192 61.7533 32.2813 62.0011 32.5458L69.465 40.0928C70.0021 40.6359 70.8834 40.6359 71.4204 40.0928L79.7519 31.6547L79.9998 31.9053Z"
    fill="#4D8EFF"></path>
  <path
    d="M66.753 55.9666L66.6014 56.1337L54.6483 68.22L51.7977 65.3237L60.4183 56.607L63.9024 53.0842L66.753 55.9666Z"
    fill="#4D8EFF"></path>
  <path
    d="M36.3875 34.2864L32.2976 38.4219L53.4085 59.7679L57.4984 55.6324L36.3875 34.2864Z"
    fill="#4D8EFF"></path>
  <path
    d="M79.6559 73.8454C79.6559 75.4885 79.0224 77.0341 77.8657 78.2037C76.7227 79.3595 75.1803 80 73.5554 80C71.9303 80 70.4018 79.3595 69.2451 78.1898L58.9581 67.7883L67.565 59.0856L77.8657 69.4871C79.0224 70.6428 79.6559 72.1884 79.6559 73.8454Z"
    fill="#4D8EFF"></path>
</svg>