<svg
  width="101"
  height="100"
  viewBox="0 0 101 100"
  fill="none"
  xmlns="http://www.w3.org/2000/svg"
>
  <rect x="0.5" width="100" height="100" rx="4" fill="#E1ECFF"></rect>
  <path
    fill-rule="evenodd"
    clip-rule="evenodd"
    d="M78.5 64.5C78.5 66.706 76.706 68.5 74.5 68.5C72.294 68.5 70.5 66.706 70.5 64.5V44.5H77.5C78.052 44.5 78.5 44.948 78.5 45.5V64.5ZM65.5 39.5C65.5 40.053 65.053 40.5 64.5 40.5H26.5C25.947 40.5 25.5 40.053 25.5 39.5V35.5C25.5 34.947 25.947 34.5 26.5 34.5H64.5C65.053 34.5 65.5 34.947 65.5 35.5V39.5ZM64.5 49.5H58.5C57.947 49.5 57.5 49.053 57.5 48.5C57.5 47.947 57.947 47.5 58.5 47.5H64.5C65.053 47.5 65.5 47.947 65.5 48.5C65.5 49.053 65.053 49.5 64.5 49.5ZM64.5 53.5H62.5C61.947 53.5 61.5 53.053 61.5 52.5C61.5 51.947 61.947 51.5 62.5 51.5H64.5C65.053 51.5 65.5 51.947 65.5 52.5C65.5 53.053 65.053 53.5 64.5 53.5ZM64.5 57.5H58.5C57.947 57.5 57.5 57.053 57.5 56.5C57.5 55.947 57.947 55.5 58.5 55.5H64.5C65.053 55.5 65.5 55.947 65.5 56.5C65.5 57.053 65.053 57.5 64.5 57.5ZM64.5 61.5H62.5C61.947 61.5 61.5 61.053 61.5 60.5C61.5 59.947 61.947 59.5 62.5 59.5H64.5C65.053 59.5 65.5 59.947 65.5 60.5C65.5 61.053 65.053 61.5 64.5 61.5ZM64.5 65.5H60.5C59.947 65.5 59.5 65.053 59.5 64.5C59.5 63.947 59.947 63.5 60.5 63.5H64.5C65.053 63.5 65.5 63.947 65.5 64.5C65.5 65.053 65.053 65.5 64.5 65.5ZM52.5 55.5H54.5C55.053 55.5 55.5 55.947 55.5 56.5C55.5 57.053 55.053 57.5 54.5 57.5H52.5C51.947 57.5 51.5 57.053 51.5 56.5C51.5 55.947 51.947 55.5 52.5 55.5ZM51.5 48.5C51.5 47.947 51.947 47.5 52.5 47.5H54.5C55.053 47.5 55.5 47.947 55.5 48.5C55.5 49.053 55.053 49.5 54.5 49.5H52.5C51.947 49.5 51.5 49.053 51.5 48.5ZM52.5 51.5H58.5C59.053 51.5 59.5 51.947 59.5 52.5C59.5 53.053 59.053 53.5 58.5 53.5H52.5C51.947 53.5 51.5 53.053 51.5 52.5C51.5 51.947 51.947 51.5 52.5 51.5ZM58.5 61.5H52.5C51.947 61.5 51.5 61.053 51.5 60.5C51.5 59.947 51.947 59.5 52.5 59.5H58.5C59.053 59.5 59.5 59.947 59.5 60.5C59.5 61.053 59.053 61.5 58.5 61.5ZM56.5 65.5H52.5C51.947 65.5 51.5 65.053 51.5 64.5C51.5 63.947 51.947 63.5 52.5 63.5H56.5C57.053 63.5 57.5 63.947 57.5 64.5C57.5 65.053 57.053 65.5 56.5 65.5ZM49.207 56.207L46.207 59.207C46.02 59.395 45.766 59.5 45.5 59.5C45.234 59.5 44.979 59.395 44.792 59.206L44.5 58.913V64.5C44.5 65.053 44.053 65.5 43.5 65.5H31.5C30.947 65.5 30.5 65.053 30.5 64.5V58.913L30.208 59.206C30.021 59.395 29.767 59.5 29.501 59.5H29.5C29.234 59.5 28.98 59.395 28.793 59.207L25.793 56.207C25.402 55.816 25.402 55.185 25.792 54.794L36.771 43.794C36.958 43.605 37.212 43.5 37.478 43.5C37.742 43.5 37.997 43.605 38.185 43.792L49.206 54.792C49.395 54.979 49.5 55.234 49.5 55.499C49.5 55.765 49.395 56.02 49.207 56.207ZM77.5 42.5H70.5V32.5C70.5 30.846 69.154 29.5 67.5 29.5H23.5C21.846 29.5 20.5 30.846 20.5 32.5V64.5C20.5 67.809 23.191 70.5 26.5 70.5H74.5C77.809 70.5 80.5 67.809 80.5 64.5V45.5C80.5 43.846 79.154 42.5 77.5 42.5Z"
    fill="#e65a28"></path>
  <path
    fill-rule="evenodd"
    clip-rule="evenodd"
    d="M32.5 56.9141V63.5001H42.5V56.9151L37.489 51.9141L32.5 56.9141Z"
    fill="#e65a28"></path>
  <path
    fill-rule="evenodd"
    clip-rule="evenodd"
    d="M27.9131 55.4991L29.4991 57.0851L36.7701 49.7941C36.9581 49.6051 37.2121 49.5001 37.4771 49.5001C37.4791 49.5001 37.4821 49.5011 37.4841 49.5011C37.4851 49.5011 37.4861 49.5001 37.4871 49.5001C37.4941 49.5001 37.5011 49.5041 37.5071 49.5041C37.5861 49.5061 37.6641 49.5141 37.7381 49.5341C37.7731 49.5411 37.8041 49.5591 37.8371 49.5691C37.8541 49.5761 37.8711 49.5801 37.8871 49.5871C38.0131 49.6351 38.1331 49.6981 38.2291 49.7941L45.5011 57.0851L47.0851 55.5011L37.4791 45.9141L27.9131 55.4991Z"
    fill="#e65a28"></path>
  <path
    fill-rule="evenodd"
    clip-rule="evenodd"
    d="M27.5 38.4995H63.5V36.4995H27.5V38.4995Z"
    fill="#e65a28"></path>
</svg>