<svg
  width="100"
  height="100"
  viewBox="0 0 100 100"
  fill="none"
  xmlns="http://www.w3.org/2000/svg"
>
  <rect width="100" height="100" rx="4" fill="#E1ECFF"></rect>
  <path
    d="M41.7242 67.5862H58.2759C58.8475 67.5862 59.3104 67.1232 59.3104 66.5517C59.3104 65.9801 58.8475 65.5172 58.2759 65.5172H41.7242C41.1526 65.5172 40.6897 65.9801 40.6897 66.5517C40.6897 67.1232 41.1526 67.5862 41.7242 67.5862Z"
    fill="#FF9156"></path>
  <path
    d="M78.9655 26.2069H75.8621V23.1034C75.8621 22.5241 75.4069 22.069 74.8276 22.069H71.7241V21.0345C71.7241 20.4552 71.269 20 70.6897 20C70.1103 20 69.6552 20.4552 69.6552 21.0345V22.069H66.5517C65.9724 22.069 65.5172 22.5241 65.5172 23.1034V26.2069H63.4483V21.0345C63.4483 20.4552 62.9931 20 62.4138 20H37.5862C37.0069 20 36.5517 20.4552 36.5517 21.0345V26.2069H34.4828V23.1034C34.4828 22.5241 34.0276 22.069 33.4483 22.069H30.3448V21.0345C30.3448 20.4552 29.8897 20 29.3103 20C28.731 20 28.2759 20.4552 28.2759 21.0345V22.069H25.1724C24.5931 22.069 24.1379 22.5241 24.1379 23.1034V26.2069H21.0345C20.4552 26.2069 20 26.6621 20 27.2414V78.9655C20 79.5448 20.4552 80 21.0345 80H78.9655C79.5448 80 80 79.5448 80 78.9655V27.2414C80 26.6621 79.5448 26.2069 78.9655 26.2069ZM67.5859 24.1379H73.7928V26.2069H67.5859V24.1379ZM42.7583 25.1724C42.7583 24.5931 43.2135 24.1379 43.7928 24.1379H56.2066C56.7859 24.1379 57.241 24.5931 57.241 25.1724V29.3103C57.241 29.8897 56.7859 30.3448 56.2066 30.3448H43.7928C43.2135 30.3448 42.7583 29.8897 42.7583 29.3103V25.1724ZM42.7583 33.4483C42.7583 32.869 43.2135 32.4138 43.7928 32.4138H56.2066C56.7859 32.4138 57.241 32.869 57.241 33.4483V37.5862C57.241 38.1655 56.7859 38.6207 56.2066 38.6207H43.7928C43.2135 38.6207 42.7583 38.1655 42.7583 37.5862V33.4483ZM42.7583 41.7241C42.7583 41.1448 43.2135 40.6897 43.7928 40.6897H56.2066C56.7859 40.6897 57.241 41.1448 57.241 41.7241V45.8621C57.241 46.4414 56.7859 46.8966 56.2066 46.8966H43.7928C43.2135 46.8966 42.7583 46.4414 42.7583 45.8621V41.7241ZM42.7583 50C42.7583 49.4207 43.2135 48.9655 43.7928 48.9655H56.2066C56.7859 48.9655 57.241 49.4207 57.241 50V54.1379C57.241 54.7172 56.7859 55.1724 56.2066 55.1724H43.7928C43.2135 55.1724 42.7583 54.7172 42.7583 54.1379V50ZM26.2066 24.1383H32.4135V26.2072H26.2066V24.1383ZM24.1376 33.4483C24.1376 32.869 24.5928 32.4138 25.1721 32.4138H33.4479C34.0273 32.4138 34.4824 32.869 34.4824 33.4483V37.5862C34.4824 38.1655 34.0273 38.6207 33.4479 38.6207H25.1721C24.5928 38.6207 24.1376 38.1655 24.1376 37.5862V33.4483ZM24.1376 41.7241C24.1376 41.1448 24.5928 40.6897 25.1721 40.6897H33.4479C34.0273 40.6897 34.4824 41.1448 34.4824 41.7241V45.8621C34.4824 46.4414 34.0273 46.8966 33.4479 46.8966H25.1721C24.5928 46.8966 24.1376 46.4414 24.1376 45.8621V41.7241ZM24.1376 54.1379V50C24.1376 49.4207 24.5928 48.9655 25.1721 48.9655H33.4479C34.0273 48.9655 34.4824 49.4207 34.4824 50V54.1379C34.4824 54.7172 34.0273 55.1724 33.4479 55.1724H25.1721C24.5928 55.1724 24.1376 54.7172 24.1376 54.1379ZM57.241 77.9314H42.7583V71.7245H57.241V77.9314ZM65.5169 77.9314H59.31V70.6897C59.31 70.1103 58.8548 69.6552 58.2755 69.6552H41.7238C41.1445 69.6552 40.6893 70.1103 40.6893 70.6897V77.9314H34.4824V63.4486H65.5169V77.9314ZM67.5859 61.3796H32.4135V59.3107H67.5859V61.3796ZM75.8617 54.1379C75.8617 54.7172 75.4066 55.1724 74.8273 55.1724H66.5514C65.9721 55.1724 65.5169 54.7172 65.5169 54.1379V50C65.5169 49.4207 65.9721 48.9655 66.5514 48.9655H74.8273C75.4066 48.9655 75.8617 49.4207 75.8617 50V54.1379ZM75.8617 45.8621C75.8617 46.4414 75.4066 46.8966 74.8273 46.8966H66.5514C65.9721 46.8966 65.5169 46.4414 65.5169 45.8621V41.7241C65.5169 41.1448 65.9721 40.6897 66.5514 40.6897H74.8273C75.4066 40.6897 75.8617 41.1448 75.8617 41.7241V45.8621ZM75.8617 37.5862C75.8617 38.1655 75.4066 38.6207 74.8273 38.6207H66.5514C65.9721 38.6207 65.5169 38.1655 65.5169 37.5862V33.4483C65.5169 32.869 65.9721 32.4138 66.5514 32.4138H74.8273C75.4066 32.4138 75.8617 32.869 75.8617 33.4483V37.5862Z"
    fill="#FF9156"></path>
  <path d="M26.2065 51.0345H32.4134V53.1035H26.2065V51.0345Z" fill="#FF9156"
  ></path>
  <path d="M26.2065 42.7586H32.4134V44.8276H26.2065V42.7586Z" fill="#FF9156"
  ></path>
  <path d="M26.2065 34.4828H32.4134V36.5518H26.2065V34.4828Z" fill="#FF9156"
  ></path>
  <path d="M67.5859 34.4828H73.7928V36.5518H67.5859V34.4828Z" fill="#FF9156"
  ></path>
  <path d="M67.5859 42.7586H73.7928V44.8276H67.5859V42.7586Z" fill="#FF9156"
  ></path>
  <path d="M67.5859 51.0345H73.7928V53.1035H67.5859V51.0345Z" fill="#FF9156"
  ></path>
  <path d="M44.8279 26.2069H55.1727V28.2759H44.8279V26.2069Z" fill="#FF9156"
  ></path>
  <path d="M44.8279 34.4828H55.1727V36.5518H44.8279V34.4828Z" fill="#FF9156"
  ></path>
  <path d="M44.8279 42.7586H55.1727V44.8276H44.8279V42.7586Z" fill="#FF9156"
  ></path>
  <path d="M44.8279 51.0345H55.1727V53.1035H44.8279V51.0345Z" fill="#FF9156"
  ></path>
</svg>