<svg
  width="100"
  height="100"
  viewBox="0 0 100 100"
  fill="none"
  xmlns="http://www.w3.org/2000/svg"
>
  <rect width="100" height="100" rx="4" fill="#E1ECFF"></rect>
  <path
    d="M79.0808 56.5661C77.6258 54.8416 74.9558 54.5451 73.1094 55.8999L61.0645 64.7393C60.4655 65.1776 59.7286 65.4167 58.9679 65.4183L50.3367 65.4263C49.1625 65.4279 48.2095 64.5369 48.2078 63.4356C48.2061 62.3358 49.1574 61.4417 50.3333 61.4417L57.5657 61.4353C59.9158 61.4337 61.8183 59.647 61.8166 57.4459C61.8132 55.2448 59.9073 53.4629 57.5572 53.4661L40.9975 53.482L39.8795 53.4836C37.594 53.4852 35.3766 54.2056 33.5779 55.5269L27.6694 59.8717C27.3002 60.1443 27.2355 60.6463 27.5282 60.9922L39.0048 74.5877C39.1647 74.7773 39.4064 74.8889 39.665 74.8905L53.5496 75.0005L57.387 75.0308C59.715 75.0499 61.98 74.3215 63.806 72.9699L78.3814 62.1764C80.2278 60.8057 80.5409 58.2954 79.0808 56.5661Z"
    fill="#FF9156"></path>
  <path
    d="M24.1877 63.4609C23.8967 63.1151 23.3607 63.0577 22.9931 63.3302L20.3231 65.3066C19.9538 65.5791 19.8925 66.0812 20.1835 66.4255L31.3861 79.6974C31.6771 80.0433 32.2132 80.1006 32.5807 79.8281L35.2508 77.8517C35.6201 77.5792 35.6813 77.0771 35.3903 76.7329L24.1877 63.4609ZM54.4805 35.0268C58.9101 35.0268 62.5025 31.6622 62.5025 27.5134C62.5025 23.3646 58.9101 20 54.4805 20C50.0508 20 46.4585 23.3646 46.4585 27.5134C46.4585 31.6622 50.0491 35.0268 54.4805 35.0268ZM61.8933 39.7286H47.066C43.7135 39.7286 40.9976 42.4716 40.9976 45.8553V47.6229C40.9976 48.6509 41.8229 49.4845 42.8423 49.4845H66.1187C67.1381 49.4845 67.9634 48.6509 67.9634 47.6229V45.8553C67.9634 42.4716 65.2457 39.7286 61.8933 39.7286Z"
    fill="#FF9156"></path>
</svg>